<?xml version="1.0" encoding="utf-8"?>
<!DOCTYPE svg PUBLIC "-//W3C//DTD SVG 1.1//EN" "http://www.w3.org/Graphics/SVG/1.1/DTD/svg11.dtd">
<svg version="1.1" xmlns="http://www.w3.org/2000/svg" xmlns:xlink="http://www.w3.org/1999/xlink" viewBox="0 0 474.684 199.109" enable-background="new 0 0 474.684 199.109"
	 xml:space="preserve">
	<g class="logo_fill">
		<polyline points="71.405,199.109 0,199.109 0,157.458 48.258,157.458 134.868,0.109 232.722,0.109 232.722,51.015 
			155.368,51.015 	"/>
		<polyline points="232.722,199.109 79.337,199.109 105.78,156.136 199.005,156.136 199.005,123.739 119.669,123.739 
			140.157,88.038 232.722,88.038 	"/>
		<polyline points="474.699,199.109 403.303,199.109 319.326,51.015 241.974,51.015 241.974,0.109 339.836,0.109 
			426.435,157.458 474.699,157.458 	"/>
		<polyline points="395.361,199.109 241.974,199.109 241.974,88.038 334.538,88.038 355.027,123.739 275.694,123.739 
			275.694,156.136 368.923,156.136 	"/>
	</g>
</svg>
